<?xml version="1.0" encoding="utf-8"?>
<svg width="530" height="288" viewBox="0 0 530 288" xmlns="http://www.w3.org/2000/svg">
<rect id="frame" x="0" y="0" width="530" height="288" fill="#f7f7f7" stroke="none" stroke-width="0"/>

<!-- Association Réaliser -->
<g>
	<line x1="260" y1="60" x2="159" y2="60" stroke="#4393c3" stroke-width="2"/>
	<text x="196" y="77" fill="#b2182b" font-family="Verdana" font-size="12">1,N</text>
	<line x1="52" y1="60" x2="159" y2="60" stroke="#4393c3" stroke-width="2"/>
	<text x="100" y="77" fill="#b2182b" font-family="Verdana" font-size="12">1,N</text>
	<g>
		<path d="M177 35 a14 14 90 0 1 14 14 V60 h-64 V49 a14 14 90 0 1 14 -14" fill="#92c5de" stroke="#92c5de" stroke-width="0"/>
		<path d="M191 60 v11 a14 14 90 0 1 -14 14 H141 a14 14 90 0 1 -14 -14 V60 H64" fill="#d1e5f0" stroke="#d1e5f0" stroke-width="0"/>
		<rect x="127" y="35" width="64" height="50" fill="none" rx="14" stroke="#4393c3" stroke-width="2"/>
		<line x1="127" y1="60" x2="191" y2="60" stroke="#4393c3" stroke-width="1"/>
		<text x="135" y="52.75" fill="#000" font-family="Verdana" font-size="12">Réaliser</text>
		<text x="134" y="77.8" fill="#000" font-family="Verdana" font-size="12">date</text>
	</g>
</g>

<!-- Association Jouer -->
<g>
	<line x1="260" y1="60" x2="260" y2="161" stroke="#4393c3" stroke-width="2"/>
	<text x="265" y="128" fill="#b2182b" font-family="Verdana" font-size="12">1,1</text>
	<line x1="260" y1="245" x2="260" y2="161" stroke="#4393c3" stroke-width="2"/>
	<text x="265" y="203" fill="#b2182b" font-family="Verdana" font-size="12">1,N</text>
	<g>
		<path d="M270 136 a14 14 90 0 1 14 14 V161 h-48 V150 a14 14 90 0 1 14 -14" fill="#92c5de" stroke="#92c5de" stroke-width="0"/>
		<path d="M284 161 v11 a14 14 90 0 1 -14 14 H250 a14 14 90 0 1 -14 -14 V161 H48" fill="#d1e5f0" stroke="#d1e5f0" stroke-width="0"/>
		<rect x="236" y="136" width="48" height="50" fill="none" rx="14" stroke="#4393c3" stroke-width="2"/>
		<line x1="236" y1="161" x2="284" y2="161" stroke="#4393c3" stroke-width="1"/>
		<text x="243" y="153.75" fill="#000" font-family="Verdana" font-size="12">Jouer</text>
		<text x="243" y="178.8" fill="#000" font-family="Verdana" font-size="12">date</text>
	</g>
</g>

<!-- Association Appartenir -->
<g>
	<line x1="260" y1="245" x2="358" y2="245" stroke="#4393c3" stroke-width="2"/>
	<text x="292" y="262" fill="#b2182b" font-family="Verdana" font-size="12">1,1</text>
	<line x1="475" y1="245" x2="358" y2="245" stroke="#4393c3" stroke-width="2"/>
	<text x="402" y="262" fill="#b2182b" font-family="Verdana" font-size="12">1,N</text>
	<g>
		<path d="M383 220 a14 14 90 0 1 14 14 V245 h-78 V234 a14 14 90 0 1 14 -14" fill="#92c5de" stroke="#92c5de" stroke-width="0"/>
		<path d="M397 245 v11 a14 14 90 0 1 -14 14 H333 a14 14 90 0 1 -14 -14 V245 H78" fill="#d1e5f0" stroke="#d1e5f0" stroke-width="0"/>
		<rect x="319" y="220" width="78" height="50" fill="none" rx="14" stroke="#4393c3" stroke-width="2"/>
		<line x1="319" y1="245" x2="397" y2="245" stroke="#4393c3" stroke-width="1"/>
		<text x="326" y="237.75" fill="#000" font-family="Verdana" font-size="12">Appartenir</text>
	</g>
</g>

<!-- Entity Statistiques -->
<g>
	<g>
		<rect x="9" y="9" width="86" height="25" fill="#f4a582" stroke="#f4a582" stroke-width="0" opacity="1"/>
		<rect x="9" y="34" width="86" height="77" fill="#fddbc7" stroke="#fddbc7" stroke-width="0" opacity="1"/>
		<rect x="9" y="9" width="86" height="102" fill="none" stroke="#d6604d" stroke-width="2" opacity="1"/>
		<line x1="9" y1="34" x2="95" y2="34" stroke="#d6604d" stroke-width="1"/>
	</g>
	<text x="16" y="26.75" fill="#000" font-family="Verdana" font-size="12">Statistiques</text>
	<text x="14" y="51.8" fill="#000" font-family="Verdana" font-size="12">id_stat</text>
	<line x1="14" y1="54" x2="56" y2="54" stroke="#000" stroke-width="1"/>
	<text x="14" y="68.8" fill="#000" font-family="Verdana" font-size="12">matchs joué</text>
	<text x="14" y="85.8" fill="#000" font-family="Verdana" font-size="12">nb but</text>
	<text x="14" y="102.8" fill="#000" font-family="Verdana" font-size="12">ratio b/m</text>
</g>

<!-- Entity Joueurs -->
<g>
	<g>
		<rect x="223" y="9" width="74" height="25" fill="#f4a582" stroke="#f4a582" stroke-width="0" opacity="1"/>
		<rect x="223" y="34" width="74" height="77" fill="#fddbc7" stroke="#fddbc7" stroke-width="0" opacity="1"/>
		<rect x="223" y="9" width="74" height="102" fill="none" stroke="#d6604d" stroke-width="2" opacity="1"/>
		<line x1="223" y1="34" x2="297" y2="34" stroke="#d6604d" stroke-width="1"/>
	</g>
	<text x="237" y="26.75" fill="#000" font-family="Verdana" font-size="12">Joueurs</text>
	<text x="228" y="51.8" fill="#000" font-family="Verdana" font-size="12">id_joueur</text>
	<line x1="228" y1="54" x2="286" y2="54" stroke="#000" stroke-width="1"/>
	<text x="228" y="68.8" fill="#000" font-family="Verdana" font-size="12">nom</text>
	<text x="228" y="85.8" fill="#000" font-family="Verdana" font-size="12">âge</text>
	<text x="228" y="102.8" fill="#000" font-family="Verdana" font-size="12">nationalité</text>
</g>

<!-- Entity Club -->
<g>
	<g>
		<rect x="233" y="211" width="54" height="25" fill="#f4a582" stroke="#f4a582" stroke-width="0" opacity="1"/>
		<rect x="233" y="236" width="54" height="43" fill="#fddbc7" stroke="#fddbc7" stroke-width="0" opacity="1"/>
		<rect x="233" y="211" width="54" height="68" fill="none" stroke="#d6604d" stroke-width="2" opacity="1"/>
		<line x1="233" y1="236" x2="287" y2="236" stroke="#d6604d" stroke-width="1"/>
	</g>
	<text x="246" y="228.75" fill="#000" font-family="Verdana" font-size="12">Club</text>
	<text x="238" y="253.8" fill="#000" font-family="Verdana" font-size="12">id_club</text>
	<line x1="238" y1="256" x2="282" y2="256" stroke="#000" stroke-width="1"/>
	<text x="238" y="270.8" fill="#000" font-family="Verdana" font-size="12">nom</text>
</g>

<!-- Entity Championnat -->
<g>
	<g>
		<rect x="429" y="211" width="92" height="25" fill="#f4a582" stroke="#f4a582" stroke-width="0" opacity="1"/>
		<rect x="429" y="236" width="92" height="43" fill="#fddbc7" stroke="#fddbc7" stroke-width="0" opacity="1"/>
		<rect x="429" y="211" width="92" height="68" fill="none" stroke="#d6604d" stroke-width="2" opacity="1"/>
		<line x1="429" y1="236" x2="521" y2="236" stroke="#d6604d" stroke-width="1"/>
	</g>
	<text x="435" y="228.75" fill="#000" font-family="Verdana" font-size="12">Championnat</text>
	<text x="434" y="253.8" fill="#000" font-family="Verdana" font-size="12">id_ligue</text>
	<line x1="434" y1="256" x2="482" y2="256" stroke="#000" stroke-width="1"/>
	<text x="434" y="270.8" fill="#000" font-family="Verdana" font-size="12">pays</text>
</g>
</svg>